<?xml version="1.0" encoding="UTF-8" standalone="no"?>
<!DOCTYPE svg PUBLIC "-//W3C//DTD SVG 1.1//EN" "http://www.w3.org/Graphics/SVG/1.1/DTD/svg11.dtd">
<svg version="1.1" xmlns="http://www.w3.org/2000/svg" xmlns:xlink="http://www.w3.org/1999/xlink" preserveAspectRatio="xMidYMid meet" viewBox="0 0 640 205" width="640" height="205"><defs><path d="M278.97 205.13L278.97 164.1L361.03 164.1L361.03 0L196.92 0L196.92 205.13L278.97 205.13ZM320 41.03L320 123.08L278.97 123.08L278.97 41.03L320 41.03ZM393.85 164.1L475.9 164.1L475.9 41.03L516.92 41.03L516.92 164.1L557.95 164.1L557.95 41.03L598.97 41.03L598.97 164.1L640 164.1L640 0L393.85 0L393.85 164.1ZM82.05 164.1L82.05 41.03L123.08 41.03L123.08 164.1L164.1 164.1L164.1 0L0 0L0 164.1L82.05 164.1Z" id="a21BPQoPwf"></path></defs><g><g><g><use xlink:href="#a21BPQoPwf" opacity="1" fill="#ffffff" fill-opacity="1"></use><g><use xlink:href="#a21BPQoPwf" opacity="1" fill-opacity="0" stroke="#000000" stroke-width="1" stroke-opacity="0"></use></g></g></g></g></svg>