<svg width="600" height="600" xmlns="http://www.w3.org/2000/svg" class="svg-inline--fa fa-code-branch fa-w-12">

 <g>
  <title>background</title>
  <rect fill="none" id="canvas_background" height="602" width="602" y="-1" x="-1"/>
 </g>
 <g>
  <title>Layer 1</title>
  <path id="svg_1" d="m493,188c0,-44.2 -35.8,-80 -80,-80s-80,35.8 -80,80c0,36.4 24.3,67.1 57.5,76.8c-0.6,16.1 -4.2,28.5 -11,36.9c-15.4,19.2 -49.3,22.4 -85.2,25.7c-28.2,2.6 -57.4,5.4 -81.3,16.9l0,-144c32.5,-10.2 56,-40.5 56,-76.3c0,-44.2 -35.8,-80 -80,-80s-80,35.8 -80,80c0,35.8 23.5,66.1 56,76.3l0,199.3c-32.5,10.3 -56,40.6 -56,76.4c0,44.2 35.8,80 80,80s80,-35.8 80,-80c0,-34 -21.2,-63.1 -51.2,-74.6c3.1,-5.2 7.8,-9.8 14.9,-13.4c16.2,-8.2 40.4,-10.4 66.1,-12.8c42.2,-3.9 90,-8.4 118.2,-43.5c14,-17.4 21.1,-39.8 21.6,-67.9c31.6,-10.7 54.4,-40.6 54.4,-75.8zm-304,-96c17.6,0 32,14.4 32,32s-14.4,32 -32,32s-32,-14.4 -32,-32s14.4,-32 32,-32zm0,416c-17.6,0 -32,-14.4 -32,-32s14.4,-32 32,-32s32,14.4 32,32s-14.4,32 -32,32zm224,-288c-17.6,0 -32,-14.4 -32,-32s14.4,-32 32,-32s32,14.4 32,32s-14.4,32 -32,32z" fill="#d4d4d4"/>
 </g>
</svg>